HIERARCHY
ROOT Hips
{
  OFFSET 53.8318 96.8551 13.2425
  CHANNELS 6 Xposition Yposition Zposition Zrotation Xrotation Yrotation
  JOINT spine
  {
    OFFSET 0 7.96568 0.458067
    CHANNELS 3 Zrotation Xrotation Yrotation
    JOINT spine1
    {
      OFFSET 0 10.2431 0
      CHANNELS 3 Zrotation Xrotation Yrotation
      JOINT spine2
      {
        OFFSET 0 9.81475 0
        CHANNELS 3 Zrotation Xrotation Yrotation
        JOINT Neck
        {
          OFFSET 0 25.1986 1.20138
          CHANNELS 3 Zrotation Xrotation Yrotation
          JOINT Head
          {
            OFFSET 0 7.61315 0
            CHANNELS 3 Zrotation Xrotation Yrotation
            End Site
            {
              OFFSET 0 18.4281 -6.07733
            }
          }
        }
        JOINT RightShoulder
        {
          OFFSET -4.1327 10.5992 -0.575451
          CHANNELS 3 Zrotation Xrotation Yrotation
          JOINT RightArm
          {
            OFFSET 0 13.9018 0
            CHANNELS 3 Zrotation Xrotation Yrotation
            JOINT RightArmRoll
            {
              OFFSET 0 7.01789 0
              CHANNELS 3 Zrotation Xrotation Yrotation
              JOINT RightForeArm
              {
                OFFSET 0 20.4406 0
                CHANNELS 3 Zrotation Xrotation Yrotation
                JOINT RightForeArmRoll
                {
                  OFFSET 0 7.87515 0
                  CHANNELS 3 Zrotation Xrotation Yrotation
                  JOINT RightHand
                  {
                    OFFSET 0 15.8037 0
                    CHANNELS 3 Zrotation Xrotation Yrotation
                    End Site
                    {
                      OFFSET 0 0 0
                    }
                  }
                }
              }
            }
          }
        }
        JOINT LeftShoulder
        {
          OFFSET 4.1327 10.5992 -0.575451
          CHANNELS 3 Zrotation Xrotation Yrotation
          JOINT LeftArm
          {
            OFFSET 0 13.9018 0
            CHANNELS 3 Zrotation Xrotation Yrotation
            JOINT LeftArmRoll
            {
              OFFSET 0 7.01789 0
              CHANNELS 3 Zrotation Xrotation Yrotation
              JOINT LeftForeArm
              {
                OFFSET 0 20.4406 0
                CHANNELS 3 Zrotation Xrotation Yrotation
                JOINT LeftForeArmRoll
                {
                  OFFSET 0 7.87516 0
                  CHANNELS 3 Zrotation Xrotation Yrotation
                  JOINT LeftHand
                  {
                    OFFSET 0 15.8037 0
                    CHANNELS 3 Zrotation Xrotation Yrotation
                    End Site
                    {
                      OFFSET 0 0 0
                    }
                  }
                }
              }
            }
          }
        }
      }
    }
  }
  JOINT RightUpLeg
  {
    OFFSET -7.06048 -1.2947 -1.0861
    CHANNELS 3 Zrotation Xrotation Yrotation
    JOINT RightUpLegRoll
    {
      OFFSET 0 18.5308 0
      CHANNELS 3 Zrotation Xrotation Yrotation
      JOINT RightLeg
      {
        OFFSET 0 -22.9476 0
        CHANNELS 3 Zrotation Xrotation Yrotation
        JOINT RightLegRoll
        {
          OFFSET 0 23.0226 0
          CHANNELS 3 Zrotation Xrotation Yrotation
          JOINT RightFoot
          {
            OFFSET 0 19.1625 0
            CHANNELS 3 Zrotation Xrotation Yrotation
            JOINT RightToeBase
            {
              OFFSET 0 16.0188 0
              CHANNELS 3 Zrotation Xrotation Yrotation
              End Site
              {
                OFFSET 0.00678979 7.75782 -0.894206
              }
            }
          }
        }
      }
    }
  }
  JOINT LeftUpLeg
  {
    OFFSET 7.06048 -1.2947 -1.0861
    CHANNELS 3 Zrotation Xrotation Yrotation
    JOINT LeftUpLegRoll
    {
      OFFSET 0 18.5309 0
      CHANNELS 3 Zrotation Xrotation Yrotation
      JOINT LeftLeg
      {
        OFFSET 0 22.9475 0
        CHANNELS 3 Zrotation Xrotation Yrotation
        JOINT LeftLegRoll
        {
          OFFSET 0 23.2355 0
          CHANNELS 3 Zrotation Xrotation Yrotation
          JOINT LeftFoot
          {
            OFFSET 0 18.9496 0
            CHANNELS 3 Zrotation Xrotation Yrotation
            JOINT LeftToeBase
            {
              OFFSET 0 16.0188 0
              CHANNELS 3 Zrotation Xrotation Yrotation
              End Site
              {
                OFFSET -0.0304289 7.75781 -0.894206
              }
            }
          }
        }
      }
    }
  }
}
MOTION
Frames: 5
Frame Time: 0.00208333
53.6956 96.9201 11.6999 1.19355 -2.63911 7.84176 -0.16294 -1.8027 -0.0913276 -0.327584 0.397162 -0.166449 -0.325739 2.04222 -0.161025 -12.6683 22.2558 2.10245 11.7338 5.40725 -1.64057 16.4577 -11.877 -8.52612 6.30079 35.0626 89.6539 -3.49861e-014 -5.37961e-015 1.39149e-015 -1.37961 86.2101 6.38794 -2.61059e-006 -2.01352e-006 -3.00472 8.03025 -4.95139 0.697626 -33.8584 -5.76426 1.94071 9.71814 45.7693 -91.6634 1.59028e-014 -7.95139e-015 -5.56597e-015 9.12052 61.689 -7.55888 -2.21521e-006 -4.0253e-007 3.00122 -8.02925 -4.95144 -0.697652 177.409 -0.185374 2.63691 180 7.01545e-015 178.915 178.537 8.89944 179.607 -2.92849e-006 -6.75993e-007 0.221787 -20.7771 70.3396 21.7062 8.13649 25.2327 -3.48774 -176.355 -3.38199 -0.256829 4.54188e-006 -4.6773e-006 -1.17011 -1.24203 -5.19671 0.0596625 -2.08359e-006 -2.56809e-006 -0.0423378 18.324 67.4582 -19.1115 -8.13649 25.2327 3.48773 
53.6941 96.9199 11.7023 1.19345 -2.62212 7.86395 -0.167413 -1.80805 -0.0894931 -0.33649 0.386118 -0.1619 -0.334702 2.03117 -0.156326 -12.5251 22.3087 2.07195 11.6513 5.39296 -1.62972 16.3678 -11.8836 -8.53836 6.28571 35.0946 89.6442 -1.90833e-014 -3.75206e-015 -5.26779e-015 -0.00454455 86.7057 5.10937 -2.61059e-006 -2.01352e-006 -3.00472 8.03025 -4.95139 0.697626 -33.7997 -5.71355 1.88625 9.83676 45.8095 -91.7085 -6.36111e-015 -7.95139e-016 -4.77083e-015 9.10273 61.9634 -7.58378 -2.21521e-006 -4.0253e-007 3.0012 -8.02925 -4.95144 -0.697652 177.413 -0.182581 2.63268 180 7.01545e-015 178.915 178.536 8.88035 179.607 -2.92849e-006 -6.75993e-007 0.221279 -20.7727 70.3352 21.7017 8.13649 25.2327 -3.48774 -176.352 -3.36432 -0.25598 4.54188e-006 -4.6773e-006 -1.16965 -1.24135 -5.19252 0.0596992 -2.08359e-006 -2.56809e-006 -0.0423806 18.3256 67.4601 -19.1132 -8.13649 25.2327 3.48773 
53.6892 96.9149 11.7145 1.19327 -2.6045 7.88565 -0.172186 -1.81369 -0.0876306 -0.345981 0.374614 -0.157006 -0.344255 2.01967 -0.15127 -12.3818 22.3633 2.04238 11.5721 5.37816 -1.61768 16.2818 -11.8896 -8.54966 6.28608 35.1263 89.621 3.18055e-015 1.40889e-014 -8.44835e-016 1.93803 87.2202 3.26586 -2.61059e-006 -2.01352e-006 -3.00471 8.03025 -4.95139 0.697626 -33.7376 -5.66155 1.83009 9.94503 45.8493 -91.7537 -6.36111e-015 0 3.18055e-015 9.08961 62.2348 -7.6113 -2.21521e-006 -4.0253e-007 3.00119 -8.02925 -4.95144 -0.697652 177.418 -0.179327 2.62819 180 7.01545e-015 178.915 178.536 8.86111 179.608 -2.92849e-006 -6.75993e-007 0.220758 -20.7687 70.3312 21.6977 8.13649 25.2327 -3.48774 -176.348 -3.3463 -0.255077 4.54188e-006 -4.6773e-006 -1.16913 -1.24065 -5.18806 0.0597363 -2.08359e-006 -2.56809e-006 -0.0424233 18.3271 67.4621 -19.115 -8.13649 25.2327 3.48773 
53.6877 96.9144 11.7149 1.19297 -2.58635 7.9067 -0.177192 -1.81956 -0.085761 -0.355927 0.362738 -0.151857 -0.354266 2.00779 -0.145953 -12.239 22.4189 2.01378 11.4961 5.36329 -1.60458 16.1997 -11.8951 -8.56024 6.2999 35.1577 89.5872 6.36111e-015 2.16178e-015 -3.18055e-015 4.84026 87.7455 0.464813 -2.61059e-006 -2.01352e-006 -3.00471 8.03025 -4.95139 0.697626 -33.673 -5.6086 1.77264 10.0433 45.8881 -91.798 -9.54166e-015 3.97569e-015 7.95139e-016 9.08053 62.5023 -7.64089 -2.21521e-006 -4.0253e-007 3.00118 -8.02925 -4.95144 -0.697652 177.422 -0.175643 2.6235 180 7.01545e-015 178.915 178.536 8.84178 179.608 -2.92849e-006 -6.75993e-007 0.220226 -20.7651 70.3275 21.6942 8.13649 25.2327 -3.48774 -176.345 -3.32803 -0.254139 4.54188e-006 -4.6773e-006 -1.16855 -1.23996 -5.18336 0.0597725 -2.08359e-006 -2.56809e-006 -0.042466 18.3288 67.4641 -19.1168 -8.13649 25.2327 3.48773 
53.6827 96.9175 11.7102 1.19255 -2.56775 7.92694 -0.182367 -1.82562 -0.0839053 -0.366203 0.350574 -0.146545 -0.364609 1.99563 -0.140467 -12.0971 22.4747 1.98621 11.4232 5.34874 -1.59055 16.1217 -11.9002 -8.57029 6.32518 35.189 89.5457 -2.54444e-014 -1.98785e-015 -3.23025e-015 9.55817 88.2707 -4.15028 -2.61059e-006 -2.01352e-006 -3.0047 8.03025 -4.95139 0.697626 -33.6071 -5.55504 1.71437 10.1322 45.9254 -91.8399 1.27222e-014 -1.27222e-014 -7.95139e-016 9.07483 62.7652 -7.67194 -2.21521e-006 -4.0253e-007 3.00117 -8.02925 -4.95144 -0.697652 177.427 -0.171561 2.61865 180 7.01545e-015 178.914 178.536 8.82237 179.609 -2.92849e-006 -6.75993e-007 0.219683 -20.7619 70.3242 21.691 8.13649 25.2327 -3.48774 -176.341 -3.30961 -0.253186 4.54188e-006 -4.6773e-006 -1.16793 -1.23927 -5.17846 0.0598065 -2.08359e-006 -2.56809e-006 -0.0425086 18.3305 67.4662 -19.1186 -8.13649 25.2327 3.48773 
